<svg width="36" height="36" fill="none" xmlns="http://www.w3.org/2000/svg"><g clip-path="url(#a)" fill="#45766A"><path d="M12.034 24.928h3.644v.302h-3.644v-.302Zm16.006 0H36v.302h-7.96v-.302Zm-.195-11.05c.331.456.599.857.812 1.213.069-1.146.267-1.845.464-2.247v3.158c.102.259.176.53.18.817 0 .204-.04.39-.12.559a1.056 1.056 0 0 1-.06.109v5.902a.87.87 0 0 0 1.739 0v-6.347h.325v6.347a.87.87 0 0 0 1.739 0v-7.1c-1.983-2.13-3.34-4.48-3.667-5.072-.062.02-.128.047-.196.081-.378.188-.786.598-1.071 1.325-.12.303-.223.663-.304 1.094a.8.8 0 0 1 .159.162Zm-.336 2.459.002.06.032.006a5.215 5.215 0 0 0-.034-.066Z"/><path d="M30.439 12.693a26.527 26.527 0 0 0 2.485 3.238v-3.085c.041.085.083.183.125.297.198.55.365 1.451.364 2.858 0 .387-.012.813-.04 1.28a.563.563 0 1 0 1.123.067c.027-.449.041-.898.042-1.347-.003-2.122-.342-3.297-.804-4.003-.23-.35-.501-.575-.75-.7a1.334 1.334 0 0 0-.594-.15H29.654c-.051 0-.102.004-.152.011.156.278.476.833.937 1.534ZM31.022 10.746a1.582 1.582 0 1 0 0-3.163 1.582 1.582 0 0 0 0 3.163ZM4.765 18.877v14.145a1.495 1.495 0 1 0 2.992 0v-10.92h.56v10.92a1.495 1.495 0 1 0 2.992 0v-18.14c.08.167.152.338.215.513.34.945.628 2.495.627 4.916 0 .667-.022 1.4-.069 2.204a.968.968 0 0 0 1.933.113 39.88 39.88 0 0 0 .071-2.317c-.005-3.651-.588-5.672-1.383-6.887-.397-.603-.862-.99-1.292-1.204a2.304 2.304 0 0 0-1-.258l-.037-.002h-.568l-.297 2.324-1.18-1.42.816-.904H6.929l.816.903-1.18 1.421-.297-2.324H5.7a.92.92 0 0 0-.107.006c-.428.006-.868.03-1.295.042-.12.004-.24.007-.358.006-.691.008-1.29-.09-1.568-.263a.718.718 0 0 1-.296-.298c-.072-.135-.14-.355-.14-.728-.001-.404.085-.976.313-1.723a.968.968 0 0 0-.644-1.207c-.007-.003-.013-.003-.02-.005V5.268c.265-.424.94-1.182 2.117-.48 3.192 1.903 3.387-2.54 3.387-2.54s-1.673.928-2.883-.16c-1.024-.922-2.264-.4-2.62-.217v-.389h-.444V7.77a.967.967 0 0 0-.745.668c-.265.875-.396 1.62-.397 2.286 0 .61.116 1.165.366 1.637.376.718 1.042 1.149 1.676 1.346.642.205 1.288.24 1.898.243l.1-.001c.25-.002.494-.01.725-.02v4.948Z"/><path d="M8.48 11.234a2.722 2.722 0 1 0-.887-5.37 2.722 2.722 0 0 0 .888 5.37Zm13.743 5.883c-.122-1.217-.395-1.992-.735-2.512-.23-.35-.501-.575-.75-.7a1.333 1.333 0 0 0-.594-.15h-.494a10.664 10.664 0 0 1 .24 3.327v1.292h-2.227v-1.29a10.657 10.657 0 0 1 .24-3.33h-.485l-.01.001a1.33 1.33 0 0 0-.593.15c-.378.188-.786.598-1.07 1.325-.29.73-.483 1.785-.484 3.378 0 .412.013.86.042 1.347a.563.563 0 0 0 1.122-.066c-.025-.427-.039-.854-.04-1.281-.002-1.703.246-2.658.49-3.157v10.545a.87.87 0 0 0 1.739 0v-6.347h.326v6.347a.87.87 0 0 0 1.738 0V15.453c.042.086.084.184.125.298.199.55.365 1.45.365 2.857 0 .387-.013.814-.04 1.281a.56.56 0 0 0 .247.497c.056-1.048.213-1.89.476-2.556.112-.286.24-.52.372-.713Z"/><path d="M17.834 16.188c0 .322.015.588.031.78h1.823a10.448 10.448 0 0 0-.255-3.213H18.12c-.225.93-.286 1.792-.286 2.433ZM18.777 13.354a1.582 1.582 0 1 0 0-3.164 1.582 1.582 0 0 0 0 3.164ZM18.775 18.104a.396.396 0 1 0 0-.791.396.396 0 0 0 0 .791ZM24.288 13.625h2.162a1.58 1.58 0 0 0-2.924.835 1.582 1.582 0 0 0 2.956.782h-2.194v-1.617Z"/><path d="M25.636 14.867a.434.434 0 1 0 0-.867.434.434 0 0 0 0 .867Z"/><path d="M29.058 16.823c-.004-.361-.13-.706-.353-1.15-.226-.442-.566-.978-1.056-1.652a.562.562 0 1 0-.91.661c.469.644.78 1.14.965 1.503.119.227.18.403.21.514a3.83 3.83 0 0 1-.665-.113c-.134-.03-.268-.063-.397-.09a2.326 2.326 0 0 0-.33-.048c-.018-.002-.037-.005-.055-.005H23.74c-.125 0-.343.025-.593.15-.378.189-.786.599-1.071 1.325-.289.73-.483 1.785-.483 3.378 0 .412.013.86.041 1.347a.562.562 0 1 0 1.123-.065c-.025-.427-.039-.854-.04-1.282-.002-1.703.246-2.657.49-3.157v10.545a.87.87 0 1 0 1.739 0v-6.346h.325v6.346a.869.869 0 1 0 1.74 0V17.686l.204.045c.229.048.473.092.73.093.216-.003.461-.025.713-.193a.902.902 0 0 0 .305-.357c.069-.146.096-.303.095-.451Z"/></g><defs><clipPath id="a"><path fill="#fff" d="M0 0h36v36H0z"/></clipPath></defs></svg>