<svg aria-hidden="true" style="position: absolute; width: 0; height: 0; overflow: hidden;" version="1.1" xmlns="http://www.w3.org/2000/svg" xmlns:xlink="http://www.w3.org/1999/xlink"><defs><symbol id="icon-logo" viewBox="0 0 91 32"><path fill="#fdfdfd" style="fill: var(--color1, #fdfdfd)" d="M0.102 18.609c0.163-0.039 16.441-3.92 28.698-9.355 1.363-0.605 2.467-0.963 3.397-1.132-1.042 1.049-7.171 3.667-2.276 4.13 4.491 0.427-2.907 5.755-6.299 7.693-8.92 2.829-14.71 3.939-14.814 3.959l0.123 0.655c0.030-0.006 0.549-0.105 1.487-0.313 4.918-1.088 21.425-5.163 40.363-14.477 2.656-1.307 4.823-2.031 6.648-2.3-0.535 2.745-6.727 8.812 3.162 10.344 9.019 1.397-9.068 4.945-15.809 6.752-0.973 0.26-1.709 0.485-2.093 0.661-2.977 1.365 31.623 0.137 47.095 0.075 0.505 0.018 1.020 0.028 1.549 0.028v-0.666c-13.82 0-18.715-6.32-22.648-11.397-4.087-5.277-7.315-9.447-18.197-4.095-1.401 0.752-3.921 1.944-6.471 3.080l-1.196 0.476c-2.282-0.812-3.664-1.98-4.875-3.005-2.255-1.909-3.883-3.289-9.327-0.873-12.218 5.418-28.457 9.291-28.62 9.329l0.102 0.432z"></path></symbol><symbol id="icon-menu" viewBox="0 0 32 32"><title>menu</title><path d="M6.4 11.733v-2.133h19.2v2.133h-19.2zM6.4 17.067h19.2v-2.133h-19.2v2.133zM6.4 22.4h19.2v-2.133h-19.2v2.133z"></path></symbol><symbol id="close-menu" viewBox="0 0 32 32"><title>close-menu</title><path d="M23.733 10.304l-1.504-1.504-5.963 5.963-5.963-5.963-1.504 1.504 5.963 5.963-5.963 5.963 1.504 1.504 5.963-5.963 5.963 5.963 1.504-1.504-5.963-5.963 5.963-5.963z"></path></symbol>
<symbol id="roposal_1" viewBox="0 0 32 32">
<path fill="#45766a" style="fill: var(--color1, #45766a)" d="M10.697 22.158h3.239v0.268h-3.239v-0.268zM24.924 22.158h7.076v0.268h-7.076v-0.268zM24.751 12.336c0.294 0.405 0.532 0.762 0.722 1.078 0.061-1.019 0.237-1.64 0.412-1.997v2.807c0.091 0.23 0.156 0.471 0.16 0.726 0 0.181-0.036 0.347-0.107 0.497-0.018 0.038-0.036 0.070-0.056 0.101l0.002-0.004v5.246c0.015 0.416 0.355 0.747 0.773 0.747s0.758-0.331 0.773-0.746l0-0.001v-5.642h0.289v5.642c0.015 0.416 0.355 0.747 0.773 0.747s0.758-0.331 0.773-0.746l0-0.001v-6.311c-1.763-1.893-2.969-3.982-3.26-4.508-0.055 0.018-0.114 0.042-0.174 0.072-0.336 0.167-0.699 0.532-0.952 1.178-0.107 0.269-0.198 0.589-0.27 0.972 0.054 0.042 0.101 0.089 0.14 0.142l0.001 0.002zM24.452 14.522l0.002 0.053 0.028 0.005c-0.022-0.045-0.032-0.065-0.042-0.084l0.012 0.025z"></path>
<path fill="#45766a" style="fill: var(--color1, #45766a)" d="M27.057 11.283c0.709 1.080 1.436 2.020 2.228 2.899l-0.019-0.021v-2.742c0.036 0.076 0.074 0.163 0.111 0.264 0.176 0.489 0.324 1.29 0.324 2.54 0 0.344-0.011 0.723-0.036 1.138-0.002 0.015-0.003 0.033-0.003 0.051 0 0.276 0.224 0.5 0.5 0.5 0.273 0 0.495-0.219 0.5-0.491v-0c0.024-0.399 0.036-0.798 0.037-1.197-0.003-1.886-0.304-2.931-0.715-3.558-0.204-0.311-0.445-0.511-0.667-0.622-0.153-0.081-0.335-0.13-0.527-0.133h-2.433c-0.045 0-0.091 0.004-0.135 0.010 0.139 0.247 0.423 0.74 0.833 1.364zM27.575 9.552c0.011 0 0.023 0 0.035 0 0.777 0 1.406-0.63 1.406-1.406s-0.63-1.406-1.406-1.406c-0.012 0-0.025 0-0.037 0l0.002-0c-0.761 0.020-1.371 0.642-1.371 1.406s0.61 1.386 1.369 1.406l0.002 0zM4.236 16.78v12.573c0 0.734 0.595 1.33 1.33 1.33s1.33-0.595 1.33-1.33v0-9.707h0.498v9.707c0 0.734 0.595 1.33 1.33 1.33s1.33-0.595 1.33-1.33v-16.124c0.071 0.148 0.135 0.3 0.191 0.456 0.302 0.84 0.558 2.218 0.557 4.37 0 0.593-0.020 1.244-0.061 1.959-0.001 0.015-0.001 0.033-0.001 0.050 0 0.475 0.385 0.861 0.861 0.861 0.458 0 0.832-0.357 0.859-0.808l0-0.002c0.039-0.613 0.062-1.332 0.063-2.057v-0.003c-0.004-3.245-0.523-5.042-1.229-6.122-0.353-0.536-0.766-0.88-1.148-1.070-0.258-0.137-0.563-0.22-0.886-0.229l-0.003-0-0.033-0.002h-0.505l-0.264 2.066-1.049-1.262 0.725-0.804h-1.97l0.725 0.803-1.049 1.263-0.264-2.066h-0.505c-0.001 0-0.001 0-0.002 0-0.033 0-0.065 0.002-0.097 0.006l0.004-0c-0.38 0.005-0.772 0.027-1.151 0.037-0.107 0.004-0.213 0.006-0.318 0.005-0.614 0.007-1.147-0.080-1.394-0.234-0.113-0.061-0.203-0.152-0.261-0.261l-0.002-0.003c-0.064-0.12-0.124-0.316-0.124-0.647-0.001-0.359 0.076-0.868 0.278-1.532 0.024-0.075 0.037-0.161 0.037-0.25 0-0.386-0.254-0.712-0.603-0.821l-0.006-0.002c-0.006-0.003-0.012-0.003-0.018-0.004v-2.242c0.236-0.377 0.836-1.051 1.882-0.427 2.837 1.692 3.011-2.258 3.011-2.258s-1.487 0.825-2.563-0.142c-0.91-0.82-2.012-0.356-2.329-0.193v-0.346h-0.395v5.589c-0.316 0.061-0.567 0.29-0.661 0.588l-0.002 0.006c-0.236 0.778-0.352 1.44-0.353 2.032 0 0.542 0.103 1.036 0.325 1.455 0.334 0.638 0.926 1.021 1.49 1.196 0.571 0.182 1.145 0.213 1.687 0.216l0.089-0.001c0.222-0.002 0.439-0.009 0.644-0.018v4.398z"></path>
<path fill="#45766a" style="fill: var(--color1, #45766a)" d="M7.538 9.986c1.18-0.174 2.076-1.18 2.076-2.395 0-1.336-1.083-2.42-2.42-2.42-0.157 0-0.311 0.015-0.46 0.044l0.015-0.002c-1.133 0.216-1.977 1.199-1.977 2.379 0 1.336 1.083 2.42 2.42 2.42 0.122 0 0.243-0.009 0.361-0.027l-0.013 0.002zM19.754 15.215c-0.108-1.082-0.351-1.771-0.653-2.233-0.204-0.311-0.445-0.511-0.667-0.622-0.153-0.081-0.335-0.13-0.527-0.133h-0.44c0.157 0.647 0.248 1.389 0.248 2.152 0 0.283-0.012 0.564-0.037 0.841l0.003-0.036v1.148h-1.98v-1.147c-0.022-0.242-0.034-0.523-0.034-0.807 0-0.764 0.090-1.506 0.261-2.217l-0.013 0.065h-0.431l-0.009 0.001c-0.193 0.003-0.374 0.052-0.534 0.136l0.006-0.003c-0.336 0.167-0.699 0.532-0.951 1.178-0.258 0.649-0.429 1.587-0.43 3.003 0 0.366 0.012 0.764 0.037 1.197 0.031 0.25 0.242 0.441 0.497 0.441 0.276 0 0.5-0.224 0.5-0.5v-0c-0.022-0.38-0.035-0.759-0.036-1.139-0.002-1.514 0.219-2.363 0.436-2.806v9.373c0.015 0.416 0.355 0.747 0.773 0.747s0.758-0.331 0.773-0.746l0-0.001v-5.642h0.29v5.642c0.020 0.411 0.358 0.736 0.772 0.736s0.752-0.325 0.772-0.734l0-0.002v-9.372c0.037 0.076 0.075 0.164 0.111 0.265 0.177 0.489 0.324 1.289 0.324 2.54 0 0.344-0.012 0.724-0.036 1.139-0.001 0.009-0.001 0.018-0.001 0.028 0 0.171 0.087 0.323 0.219 0.412l0.002 0.001c0.050-0.932 0.189-1.68 0.423-2.272 0.1-0.254 0.213-0.462 0.331-0.634z"></path>
<path fill="#45766a" style="fill: var(--color1, #45766a)" d="M15.852 14.389c0 0.286 0.013 0.523 0.028 0.693h1.62c0.017-0.21 0.027-0.455 0.027-0.702 0-0.764-0.092-1.507-0.266-2.218l0.013 0.064h-1.167c-0.2 0.827-0.254 1.593-0.254 2.163zM16.691 11.87c0.777 0 1.406-0.63 1.406-1.406s-0.63-1.406-1.406-1.406v0c-0.777 0-1.406 0.63-1.406 1.406s0.63 1.406 1.406 1.406v0zM16.689 16.092c0.005 0 0.011 0 0.018 0 0.194 0 0.352-0.158 0.352-0.352s-0.158-0.352-0.352-0.352c-0.006 0-0.012 0-0.019 0l0.001-0c-0.187 0.010-0.334 0.163-0.334 0.352s0.148 0.342 0.333 0.352l0.001 0zM21.589 12.111h1.922c-0.252-0.402-0.692-0.666-1.195-0.666-0.776 0-1.404 0.629-1.404 1.404 0 0.001 0 0.003 0 0.004v-0c0.001 0.776 0.63 1.404 1.406 1.404 0.52 0 0.974-0.283 1.218-0.702l0.004-0.007h-1.95v-1.437z"></path>
<path fill="#45766a" style="fill: var(--color1, #45766a)" d="M22.788 13.215c0.006 0 0.012 0 0.018 0 0.213 0 0.386-0.173 0.386-0.386s-0.173-0.386-0.386-0.386c-0.006 0-0.013 0-0.019 0l0.001-0c-0.205 0.010-0.367 0.179-0.367 0.385s0.162 0.375 0.366 0.385l0.001 0z"></path>
<path fill="#45766a" style="fill: var(--color1, #45766a)" d="M25.829 14.954c-0.004-0.321-0.116-0.628-0.314-1.022-0.201-0.393-0.503-0.869-0.939-1.468-0.092-0.126-0.239-0.206-0.404-0.206-0.276 0-0.5 0.224-0.5 0.5 0 0.11 0.036 0.212 0.096 0.295l-0.001-0.001c0.417 0.572 0.693 1.013 0.858 1.336 0.106 0.202 0.16 0.358 0.187 0.457-0.219-0.018-0.42-0.054-0.615-0.106l0.024 0.005c-0.119-0.027-0.238-0.056-0.353-0.080-0.084-0.019-0.184-0.035-0.286-0.042l-0.007-0c-0.016-0.002-0.033-0.004-0.049-0.004h-2.424c-0.111 0-0.305 0.022-0.527 0.133-0.336 0.168-0.699 0.532-0.952 1.178-0.257 0.649-0.429 1.587-0.429 3.003 0 0.366 0.012 0.764 0.036 1.197 0.016 0.263 0.233 0.471 0.499 0.471 0.276 0 0.5-0.224 0.5-0.5 0-0.010-0-0.020-0.001-0.030l0 0.001c-0.022-0.38-0.035-0.759-0.036-1.14-0.002-1.514 0.219-2.362 0.436-2.806v9.373c-0 0.008-0 0.017-0 0.026 0 0.427 0.346 0.773 0.773 0.773s0.773-0.346 0.773-0.773c0-0.009-0-0.018-0-0.028l0 0.001v-5.641h0.289v5.641c0 0.427 0.346 0.773 0.773 0.773s0.773-0.346 0.773-0.773v0-9.776l0.181 0.040c0.204 0.043 0.42 0.082 0.649 0.083 0.192-0.003 0.41-0.022 0.634-0.172 0.116-0.080 0.208-0.187 0.269-0.313l0.002-0.005c0.061-0.13 0.085-0.269 0.084-0.401z"></path>
</symbol></defs></svg>